<svg width="600" height="620" viewBox="0 0 600 620" fill="none" xmlns="http://www.w3.org/2000/svg">
<g clip-path="url(#clip0_1915_840)">
<g opacity="0.2">
<rect x="182" y="308" width="5" height="5" rx="2.5" transform="rotate(90 182 308)" fill="white"/>
<rect x="182" y="329" width="5" height="5" rx="2.5" transform="rotate(90 182 329)" fill="white"/>
<rect x="182" y="350" width="5" height="5" rx="2.5" transform="rotate(90 182 350)" fill="white"/>
<rect x="182" y="371" width="5" height="5" rx="2.5" transform="rotate(90 182 371)" fill="white"/>
<rect x="182" y="392" width="5" height="5" rx="2.5" transform="rotate(90 182 392)" fill="white"/>
<rect x="182" y="413" width="5" height="5" rx="2.5" transform="rotate(90 182 413)" fill="white"/>
<rect x="182" y="434" width="5" height="5" rx="2.5" transform="rotate(90 182 434)" fill="white"/>
<rect x="182" y="455" width="5" height="5" rx="2.5" transform="rotate(90 182 455)" fill="white"/>
<rect x="161" y="308" width="5" height="5" rx="2.5" transform="rotate(90 161 308)" fill="white"/>
<rect x="161" y="329" width="5" height="5" rx="2.5" transform="rotate(90 161 329)" fill="white"/>
<rect x="161" y="350" width="5" height="5" rx="2.5" transform="rotate(90 161 350)" fill="white"/>
<rect x="161" y="371" width="5" height="5" rx="2.5" transform="rotate(90 161 371)" fill="white"/>
<rect x="161" y="392" width="5" height="5" rx="2.5" transform="rotate(90 161 392)" fill="white"/>
<rect x="161" y="413" width="5" height="5" rx="2.5" transform="rotate(90 161 413)" fill="white"/>
<rect x="161" y="434" width="5" height="5" rx="2.5" transform="rotate(90 161 434)" fill="white"/>
<rect x="161" y="455" width="5" height="5" rx="2.5" transform="rotate(90 161 455)" fill="white"/>
<rect x="140" y="308" width="5" height="5" rx="2.5" transform="rotate(90 140 308)" fill="white"/>
<rect x="140" y="329" width="5" height="5" rx="2.5" transform="rotate(90 140 329)" fill="white"/>
<rect x="140" y="350" width="5" height="5" rx="2.5" transform="rotate(90 140 350)" fill="white"/>
<rect x="140" y="371" width="5" height="5" rx="2.5" transform="rotate(90 140 371)" fill="white"/>
<rect x="140" y="392" width="5" height="5" rx="2.5" transform="rotate(90 140 392)" fill="white"/>
<rect x="140" y="413" width="5" height="5" rx="2.5" transform="rotate(90 140 413)" fill="white"/>
<rect x="140" y="434" width="5" height="5" rx="2.5" transform="rotate(90 140 434)" fill="white"/>
<rect x="140" y="455" width="5" height="5" rx="2.5" transform="rotate(90 140 455)" fill="white"/>
<rect x="119" y="308" width="5" height="5" rx="2.5" transform="rotate(90 119 308)" fill="white"/>
<rect x="119" y="329" width="5" height="5" rx="2.5" transform="rotate(90 119 329)" fill="white"/>
<rect x="119" y="350" width="5" height="5" rx="2.5" transform="rotate(90 119 350)" fill="white"/>
<rect x="119" y="371" width="5" height="5" rx="2.5" transform="rotate(90 119 371)" fill="white"/>
<rect x="119" y="392" width="5" height="5" rx="2.5" transform="rotate(90 119 392)" fill="white"/>
<rect x="119" y="413" width="5" height="5" rx="2.5" transform="rotate(90 119 413)" fill="white"/>
<rect x="119" y="434" width="5" height="5" rx="2.5" transform="rotate(90 119 434)" fill="white"/>
<rect x="119" y="455" width="5" height="5" rx="2.5" transform="rotate(90 119 455)" fill="white"/>
</g>
<g opacity="0.2">
<rect x="481" y="241" width="5" height="5" rx="2.5" transform="rotate(-180 481 241)" fill="#ED1CA6"/>
<rect x="460" y="241" width="5" height="5" rx="2.5" transform="rotate(-180 460 241)" fill="#ED1CA6"/>
<rect x="439" y="241" width="5" height="5" rx="2.5" transform="rotate(-180 439 241)" fill="#ED1CA6"/>
<rect x="418" y="241" width="5" height="5" rx="2.5" transform="rotate(-180 418 241)" fill="#ED1CA6"/>
<rect x="397" y="241" width="5" height="5" rx="2.5" transform="rotate(-180 397 241)" fill="#ED1CA6"/>
<rect x="376" y="241" width="5" height="5" rx="2.5" transform="rotate(-180 376 241)" fill="#ED1CA6"/>
<rect x="355" y="241" width="5" height="5" rx="2.5" transform="rotate(-180 355 241)" fill="#ED1CA6"/>
<rect x="334" y="241" width="5" height="5" rx="2.5" transform="rotate(-180 334 241)" fill="#ED1CA6"/>
<rect x="481" y="220" width="5" height="5" rx="2.5" transform="rotate(-180 481 220)" fill="#ED1CA6"/>
<rect x="460" y="220" width="5" height="5" rx="2.5" transform="rotate(-180 460 220)" fill="#ED1CA6"/>
<rect x="439" y="220" width="5" height="5" rx="2.5" transform="rotate(-180 439 220)" fill="#ED1CA6"/>
<rect x="418" y="220" width="5" height="5" rx="2.5" transform="rotate(-180 418 220)" fill="#ED1CA6"/>
<rect x="397" y="220" width="5" height="5" rx="2.5" transform="rotate(-180 397 220)" fill="#ED1CA6"/>
<rect x="376" y="220" width="5" height="5" rx="2.5" transform="rotate(-180 376 220)" fill="#ED1CA6"/>
<rect x="355" y="220" width="5" height="5" rx="2.5" transform="rotate(-180 355 220)" fill="#ED1CA6"/>
<rect x="334" y="220" width="5" height="5" rx="2.5" transform="rotate(-180 334 220)" fill="#ED1CA6"/>
<rect x="481" y="199" width="5" height="5" rx="2.5" transform="rotate(-180 481 199)" fill="#ED1CA6"/>
<rect x="460" y="199" width="5" height="5" rx="2.5" transform="rotate(-180 460 199)" fill="#ED1CA6"/>
<rect x="439" y="199" width="5" height="5" rx="2.5" transform="rotate(-180 439 199)" fill="#ED1CA6"/>
<rect x="418" y="199" width="5" height="5" rx="2.5" transform="rotate(-180 418 199)" fill="#ED1CA6"/>
<rect x="397" y="199" width="5" height="5" rx="2.5" transform="rotate(-180 397 199)" fill="#ED1CA6"/>
<rect x="376" y="199" width="5" height="5" rx="2.5" transform="rotate(-180 376 199)" fill="#ED1CA6"/>
<rect x="355" y="199" width="5" height="5" rx="2.5" transform="rotate(-180 355 199)" fill="#ED1CA6"/>
<rect x="334" y="199" width="5" height="5" rx="2.5" transform="rotate(-180 334 199)" fill="#ED1CA6"/>
<rect x="481" y="178" width="5" height="5" rx="2.5" transform="rotate(-180 481 178)" fill="#ED1CA6"/>
<rect x="460" y="178" width="5" height="5" rx="2.5" transform="rotate(-180 460 178)" fill="#ED1CA6"/>
<rect x="439" y="178" width="5" height="5" rx="2.5" transform="rotate(-180 439 178)" fill="#ED1CA6"/>
<rect x="418" y="178" width="5" height="5" rx="2.5" transform="rotate(-180 418 178)" fill="#ED1CA6"/>
<rect x="397" y="178" width="5" height="5" rx="2.5" transform="rotate(-180 397 178)" fill="#ED1CA6"/>
<rect x="376" y="178" width="5" height="5" rx="2.5" transform="rotate(-180 376 178)" fill="#ED1CA6"/>
<rect x="355" y="178" width="5" height="5" rx="2.5" transform="rotate(-180 355 178)" fill="#ED1CA6"/>
<rect x="334" y="178" width="5" height="5" rx="2.5" transform="rotate(-180 334 178)" fill="#ED1CA6"/>
</g>
<circle opacity="0.03" cx="140.5" cy="647.5" r="264.5" fill="white"/>
<circle opacity="0.03" cx="541" cy="57" r="38" fill="white"/>
</g>
<defs>
<clipPath id="clip0_1915_840">
<rect width="600" height="620" fill="white"/>
</clipPath>
</defs>
</svg>
